<?xml version="1.0" standalone="no"?>
<!DOCTYPE svg PUBLIC "-//W3C//DTD SVG 20010904//EN"
 "http://www.w3.org/TR/2001/REC-SVG-20010904/DTD/svg10.dtd">
<svg version="1.0" xmlns="http://www.w3.org/2000/svg"
 width="22px" height="22px" viewBox="0 0 50.000000 50.000000"
 preserveAspectRatio="xMidYMid meet">

<g transform="translate(0.000000,50.000000) scale(0.100000,-0.100000)"
fill="#000000" stroke="none">
<path d="M125 398 c-3 -8 -4 -79 -3 -158 l3 -145 25 0 c24 0 25 3 28 62 l3 63
69 0 69 0 3 -62 c3 -60 4 -63 28 -63 l25 0 0 155 0 155 -25 0 c-24 0 -25 -3
-28 -62 l-3 -63 -69 0 -69 0 -3 63 c-3 56 -5 62 -26 65 -12 2 -24 -3 -27 -10z"/>
<path d="M54 357 c-2 -7 -3 -60 -2 -118 3 -99 4 -104 26 -107 22 -3 22 -2 22
117 0 115 -1 121 -20 121 -11 0 -23 -6 -26 -13z"/>
<path d="M400 250 c0 -120 0 -121 23 -118 21 3 22 6 22 118 0 112 -1 115 -22
118 -23 3 -23 2 -23 -118z"/>
<path d="M0 250 c0 -20 5 -30 15 -30 10 0 15 10 15 30 0 20 -5 30 -15 30 -10
0 -15 -10 -15 -30z"/>
<path d="M470 250 c0 -20 5 -30 15 -30 10 0 15 10 15 30 0 20 -5 30 -15 30
-10 0 -15 -10 -15 -30z"/>
</g>
</svg>
